<svg xmlns="http://www.w3.org/2000/svg" xmlns:xlink="http://www.w3.org/1999/xlink" width="336.5704" height="336.57861" viewBox="0 0 252.42782 252.43404"><symbol id="a" transform="translate(-994.011 -495.481)"><path d="M.749.845h-.63V.783h.557L.667.69.098.663.119.599q.276.015.54.033A1 1 0 0 0 .632.499L.698.487q.047.186.05.319zM.846.367v.062H.43v.127H.361V.429H0V.367zM.767 0v.062H.178V.29H.109V0Z"/></symbol><use xlink:href="#a" width="100%" height="100%" fill="#6f7173" transform="matrix(11 0 0 -11 11920.649 -5274.757)"/><g style="stroke-width:.162284"><path fill="none" d="M1287.623 731.234c0 11.313-9.17 20.483-20.483 20.483-11.312 0-20.482-9.17-20.482-20.483s9.17-20.483 20.482-20.483c11.313 0 20.483 9.17 20.483 20.483" style="stroke-width:.0263361" transform="matrix(6.16204 0 0 6.16204 -7681.953 -4379.674)"/><path fill="#2277bd" d="M1261.702 723.454h-1.505v15.196h1.505v-6.455z" style="stroke-width:.0263361" transform="matrix(6.16204 0 0 6.16204 -7681.953 -4379.674)"/><path fill="#2277bd" d="M1260.297 723.454h-1.503v15.196h1.503v-6.455z" style="stroke-width:.0263361" transform="matrix(6.16204 0 0 6.16204 -7681.953 -4379.674)"/><path fill="#2277bd" d="M1259.195 723.454h-1.08v15.196h1.08v-6.455zm8.333 8.2h10.35q-.164 1.865-1.043 3.346a7.7 7.7 0 0 1-1.805 2.047q-2.288 1.864-5.196 1.864-3.088 0-5.44-2.007a8 8 0 0 1-2.069-2.744q-.702-1.526-.703-3.109c0-1.122.262-2.227.784-3.307a7.9 7.9 0 0 1 1.765-2.389q2.325-2.144 5.614-2.164 2.186-.001 3.973 1.004c.546.31 1.1.71 1.664 1.21q1.14 1.024 1.525 2.11h-1.707a5.2 5.2 0 0 0-1.263-1.464c-1.245-1.003-2.633-1.506-4.173-1.506q-2.728 0-4.65 1.848a6.7 6.7 0 0 0-1.506 2.174 6.3 6.3 0 0 0-.522 2.472q0 1.311.584 2.597.583 1.328 1.627 2.231a6.6 6.6 0 0 0 1.99 1.188 6.9 6.9 0 0 0 2.568.503q1.984 0 3.61-1.107c1.351-.94 2.2-2.086 2.545-3.446h-8.522z" style="stroke-width:.0263361" transform="matrix(6.16204 0 0 6.16204 -7681.953 -4379.674)"/><path fill="#2277bd" d="M1248.659 731.234c0-10.19 8.292-18.48 18.482-18.48 10.192 0 18.482 8.29 18.482 18.48s-8.29 18.481-18.482 18.481c-10.19 0-18.482-8.29-18.482-18.48m-.728 0c0 10.59 8.616 19.21 19.21 19.21 10.592 0 19.212-8.62 19.212-19.21 0-10.593-8.62-19.213-19.212-19.213-10.594 0-19.21 8.62-19.21 19.212" style="stroke-width:.0263361" transform="matrix(6.16204 0 0 6.16204 -7681.953 -4379.674)"/><path fill="#2277bd" d="M1253.513 731.358c-.088-7.494 5.938-13.66 13.431-13.75 7.493-.087 13.66 5.939 13.751 13.429.086 7.494-5.938 13.662-13.43 13.749-7.494.087-13.662-5.935-13.752-13.428m-.18.002c.088 7.593 6.341 13.699 13.933 13.608 7.594-.09 13.7-6.34 13.61-13.933-.09-7.594-6.34-13.698-13.936-13.608-7.594.089-13.698 6.342-13.607 13.933" style="stroke-width:.0263361" transform="matrix(6.16204 0 0 6.16204 -7681.953 -4379.674)"/><path fill="#2277bd" d="M1249.32 731.236c0-9.805 7.977-17.785 17.783-17.785 9.808 0 17.786 7.98 17.786 17.785 0 9.808-7.978 17.784-17.786 17.784-9.806 0-17.784-7.976-17.784-17.784m-.182 0c0 9.908 8.06 17.965 17.966 17.965s17.967-8.057 17.967-17.965c0-9.904-8.06-17.967-17.967-17.967s-17.966 8.063-17.966 17.967" style="stroke-width:.0263361" transform="matrix(6.16204 0 0 6.16204 -7681.953 -4379.674)"/><path fill="#2277bd" d="M1252.065 733.69a.503.503 0 1 1-1.005-.002.503.503 0 0 1 1.005.001m31.282.118a.501.501 0 1 1-1.003 0 .502.502 0 1 1 1.003 0m-31.062-3.357-.026.346-1.804-.128.026-.347.737.054-.692-.687.032-.448.694.73 1.113-.64-.033.45-.827.45.17.177zm-.177-2.006a.4.4 0 0 0 .178-.268.4.4 0 0 0-.066-.312q-.126-.18-.46-.248-.33-.064-.522.053a.4.4 0 0 0-.18.264.4.4 0 0 0 .066.314c.088.12.24.206.466.248q.33.064.518-.051m-1.304-.072a.76.76 0 0 1-.062-.502.78.78 0 0 1 .247-.438q.3-.263.838-.156.539.107.713.464a.74.74 0 0 1 .064.5.76.76 0 0 1-.247.439q-.301.263-.835.158-.544-.11-.718-.465m1.281-2.283q.041-.129.01-.207-.035-.079-.164-.123a.3.3 0 0 0-.165-.007q-.093.034-.135.16l-.136.416.466.15zm-.996.468.264-.807q.088-.27.318-.342a.55.55 0 0 1 .33.008.5.5 0 0 1 .234.148.36.36 0 0 1 .097.23q.086-.092.168-.107.113-.022.337.05.203.066.253.075.074.009.11-.035l.043.013-.12.37a1 1 0 0 1-.145-.021 2 2 0 0 1-.212-.058q-.195-.068-.264-.045-.091.021-.146.19l-.114.347.674.22-.105.326zm1.458-2.852-.369.8.348.16.337-.733.287.13-.335.737.426.196.384-.834.29.13-.525 1.149-1.646-.755.51-1.116zm1.164-.437.225-.372-.723-.19v.007zm.477.537-.189.313-1.239-1.452.208-.344 1.858.423-.194.324-.376-.1-.328.542zm1.043-3.128.457-.53.728.63-.206.235-.17-.148q.07.063.05.218a.63.63 0 0 1-.16.335.69.69 0 0 1-.53.249q-.346.003-.684-.287-.302-.265-.372-.58c-.05-.241.011-.458.185-.66q.23-.268.524-.283a.64.64 0 0 1 .421.12l-.228.265a.2.2 0 0 0-.073-.032.4.4 0 0 0-.12-.012.4.4 0 0 0-.14.03.4.4 0 0 0-.135.103.43.43 0 0 0-.107.352q.035.219.281.432c.17.144.322.21.468.2a.45.45 0 0 0 .311-.166.5.5 0 0 0 .114-.222q.039-.194-.135-.346l-.255.294zm1.342-.978.324-.291-.638-.39v.006zm.299.652-.271.244-.763-1.747.297-.268 1.656.94-.28.253-.332-.203-.47.425zm2.428-1.905-.266.186-.806-1.151.55 1.329-.273.195-1.06-.977v.005l.806 1.149-.267.187-1.037-1.482.417-.295 1.035.949v-.002l-.547-1.29.412-.288zm.707-2.081-.775.417.18.337.713-.383.148.279-.711.382.224.416.809-.436.15.28-1.112.599-.855-1.596 1.079-.578zm1.804.247q.038.106.116.148.118.073.312.006a.5.5 0 0 0 .208-.117.2.2 0 0 0 .047-.212.17.17 0 0 0-.129-.113.8.8 0 0 0-.228 0l-.186.015a3 3 0 0 1-.206.012.6.6 0 0 1-.187-.026.4.4 0 0 1-.163-.101.6.6 0 0 1-.117-.213.53.53 0 0 1-.01-.371q.091-.247.428-.364.32-.109.553.033.176.105.252.307l-.312.11a.3.3 0 0 0-.113-.136q-.115-.07-.301-.004a.36.36 0 0 0-.168.106.19.19 0 0 0-.038.19q.03.082.101.11a.4.4 0 0 0 .124.009l.01.002.421-.03a.7.7 0 0 1 .33.03q.167.071.243.286c.075.215.041.403-.099.556a.8.8 0 0 1-.331.212q-.385.132-.625-.016a.57.57 0 0 1-.247-.32zm2.307-1.322a.5.5 0 0 0-.127-.174q-.116-.093-.296-.052a.35.35 0 0 0-.239.174q-.108.19-.034.523.056.254.187.394a.35.35 0 0 0 .352.115.33.33 0 0 0 .211-.136.46.46 0 0 0 .07-.275l.342-.078a.9.9 0 0 1-.124.524.66.66 0 0 1-.437.289.67.67 0 0 1-.588-.118q-.264-.204-.359-.647-.098-.442.063-.736a.67.67 0 0 1 .48-.35.7.7 0 0 1 .574.098.7.7 0 0 1 .267.374zm1.31 1.022-.346.047-.234-1.797.346-.044zm1.593-1.601-.882.041.017.384.809-.04.015.32-.809.035.025.47.917-.046.015.321-1.26.061-.086-1.81 1.222-.058zm1.594-.251.32.02-.118 1.805-.344-.021-.592-1.33h-.01l-.084 1.286-.326-.021.12-1.808.365.026.578 1.303zm1.898.884a.5.5 0 0 0-.049-.208.34.34 0 0 0-.252-.164.35.35 0 0 0-.288.069q-.173.131-.234.468a.83.83 0 0 0 .016.436.35.35 0 0 0 .283.242.33.33 0 0 0 .249-.044.5.5 0 0 0 .17-.226l.346.064a.9.9 0 0 1-.318.43.65.65 0 0 1-.514.099.67.67 0 0 1-.496-.337q-.164-.29-.083-.736.084-.442.347-.653a.69.69 0 0 1 .578-.139.7.7 0 0 1 .49.315.7.7 0 0 1 .101.449zm2.04.266-.846-.252-.112.363.775.236-.09.3-.775-.232-.137.45.88.266-.092.306-1.207-.365.524-1.731 1.172.353zm1.293 1.265-.361.725-.311-.154.801-1.622.313.155-.305.616.593.293.303-.617.313.153-.801 1.622-.313-.153.359-.726zm1.226 1.591-.3-.183.94-1.544.297.178zm1.598-.082.563.416-.57.772-.251-.184.133-.182q-.056.077-.21.07a.63.63 0 0 1-.348-.136.69.69 0 0 1-.288-.51q-.033-.344.232-.702.238-.322.55-.415.351-.104.674.131.28.21.322.501a.65.65 0 0 1-.09.431l-.281-.208a.2.2 0 0 0 .026-.077.4.4 0 0 0-.037-.255.4.4 0 0 0-.114-.127.42.42 0 0 0-.36-.078q-.216.051-.408.31c-.131.18-.187.338-.166.484a.45.45 0 0 0 .194.297.5.5 0 0 0 .229.095q.197.023.333-.16l-.311-.23zm1.085 1.099-.556.589-.254-.241 1.246-1.311.253.24-.472.497.477.457.476-.497.25.239-1.246 1.31-.25-.24.557-.586zm1.55 2.029a.28.28 0 0 0-.105.157q-.031.135.094.301.086.114.176.158a.19.19 0 0 0 .215-.02.17.17 0 0 0 .067-.16.8.8 0 0 0-.073-.215l-.07-.17a2 2 0 0 1-.074-.195.7.7 0 0 1-.034-.184q0-.101.047-.185a.6.6 0 0 1 .163-.18.53.53 0 0 1 .354-.12q.261.008.477.296.205.272.14.537a.57.57 0 0 1-.217.332l-.196-.262q.073-.075.093-.15.029-.13-.09-.288a.36.36 0 0 0-.151-.126.19.19 0 0 0-.195.023.16.16 0 0 0-.07.128.3.3 0 0 0 .027.122v.004l.159.392q.08.193.069.325a.45.45 0 0 1-.194.318q-.276.204-.56.08a.8.8 0 0 1-.303-.25q-.244-.326-.18-.602a.6.6 0 0 1 .227-.332zm1.963 1.759a.5.5 0 0 0 .125-.17c.034-.096.021-.193-.041-.3a.35.35 0 0 0-.243-.173q-.213-.043-.503.13a.83.83 0 0 0-.32.303.34.34 0 0 0 .001.368.33.33 0 0 0 .197.16.45.45 0 0 0 .283-.02l.179.301a.9.9 0 0 1-.535.044.65.65 0 0 1-.41-.325.68.68 0 0 1-.071-.594q.109-.313.502-.546.387-.23.716-.167.313.055.485.346a.68.68 0 0 1-.187.945zm.182 1.244-.741.327-.14-.322 1.656-.727.142.319-.63.279.265.606.629-.277.14.316-1.654.728-.141-.318.74-.323zm.321 1.922a.4.4 0 0 0-.036.32.4.4 0 0 0 .204.243q.2.104.521.005.325-.099.438-.293a.38.38 0 0 0 .035-.317.39.39 0 0 0-.204-.245q-.201-.099-.526-.002-.323.097-.432.289m1.185-.547a.75.75 0 0 1 .286.41.76.76 0 0 1-.013.505c-.094.25-.316.425-.668.533-.348.105-.633.08-.846-.075a.76.76 0 0 1-.292-.415.76.76 0 0 1 .015-.505q.142-.37.664-.527.53-.159.854.074m-.713 2.412a.38.38 0 0 0-.075.308.4.4 0 0 0 .172.27q.186.126.517.07c.222-.04.38-.115.471-.234a.39.39 0 0 0 .075-.31.4.4 0 0 0-.174-.272q-.185-.123-.52-.07-.333.059-.466.238m1.245-.396a.75.75 0 0 1 .232.447.77.77 0 0 1-.075.499q-.187.35-.73.44-.54.09-.831-.182a.76.76 0 0 1-.236-.445.75.75 0 0 1 .077-.501q.188-.35.728-.44.542-.09.835.182m-1.098 2.195.046.825-.328.018-.063-1.174 1.808-.098.018.35zm-28.342 8.653-.189.108-.37-.649.188-.107zm.43.705q.019.044.021.062c0 .014 0 .025-.01.028a.1.1 0 0 1-.038.008q-.03.001-.047.007a.2.2 0 0 0-.048.018l-.433.246.158.277-.229.13-.157-.274-.432.245-.182-.32 1.237-.706.086.148.072.131m-.489-.244-.189.108-.743-1.294.19-.11zm-.9-.564a.11.11 0 0 0-.118-.003c-.036.02-.052.054-.056.101a.37.37 0 0 0 .062.187.33.33 0 0 0 .13.143q.063.041.117.01.055-.034.054-.108a.4.4 0 0 0-.06-.184.4.4 0 0 0-.129-.146m.442.5q0 .183-.126.253-.121.072-.284-.02a1 1 0 0 1-.328-.367.9.9 0 0 1-.133-.44c.01-.12.05-.2.13-.249q.123-.072.278.014.17.094.311.337.152.273.152.471m-.869-.175c0 .017-.017.026-.043.03q-.02.001-.028.004-.019.005-.035.013l-.154.088.715 1.255-.217.126-.9-1.574.484-.279.107.188a.5.5 0 0 1 .071.15m3.571 3.997-.692-.75-.236.217.524.568-.526.483-.249-.268.341-.317-1.048-1.134.183-.173.528.573.234-.218-.68-.736.186-.172 1.151 1.244q.063-.036.151-.102a1 1 0 0 0 .13-.103l-1.01-1.09.184-.176 1.286 1.39a3 3 0 0 1-.48.365l.208.227zm3.382 1.396c.01.01 0 .026-.024.04l-.034.02a.2.2 0 0 0-.03.036l-1.007 1.485-.297-.202 1.085-1.602.185.128a.4.4 0 0 1 .122.095m-.451-.281q.014.019-.026.048a.2.2 0 0 0-.064.063l-.964 1.42-.292-.197.52-.77-.235-.16.09-.132a1.25 1.25 0 0 1-.483.244 1.7 1.7 0 0 1-.672.005q-.013-.074-.028-.158a1 1 0 0 0-.047-.158q.408.115.745-.03.275-.117.459-.385l-.545-.368.142-.211.852.578a3 3 0 0 1-.17.228 2 2 0 0 1-.184.196l.217.146.39-.577.172.117a.4.4 0 0 1 .123.1m3.548 1.611c.011.011.01.025-.011.043a.1.1 0 0 0-.025.025.2.2 0 0 0-.024.042l-.342.902-.345-.132.391-1.027.208.081a1 1 0 0 1 .148.066m-1.707-.268q-.088.033-.127.14a.23.23 0 0 0 0 .19q.045.089.178.14a.3.3 0 0 0 .228.013.23.23 0 0 0 .129-.14.24.24 0 0 0 0-.189.3.3 0 0 0-.176-.142q-.132-.053-.229-.012m-.309 1.265 1.071.408.09-.24-1.069-.409zm1.032-1.17q.102.18.028.376a.42.42 0 0 1-.272.261q-.216.078-.511-.036-.3-.115-.415-.312a.43.43 0 0 1-.026-.378.43.43 0 0 1 .271-.264q.22-.075.518.038.296.113.407.314m.554 1.256-.27.708-.342-.13.015-.04-1.069-.408-.017.042-.344-.13.271-.71zm3.722-.464c.013.008.013.024-.01.05q-.014.026-.026.042a.2.2 0 0 0-.015.059l-.091.667.312.045-.036.259-.314-.044-.112.82-.365-.05.266-1.915.202.028a.6.6 0 0 1 .187.039m-.595.033a5 5 0 0 1-.11.584 2.2 2.2 0 0 1-.152.47l-.352-.061q.053-.099.123-.362.071-.26.096-.432l-.953-.13.034-.25zm-.711.472q.02.01 0 .04l-.015.02c0 .01-.01.022-.01.032l-.082.607q.158.012.357.026.227.015.386.022v.114l.017.117q-.35-.025-.612-.041-.405-.03-.743-.053a.2.2 0 0 0-.071 0 .3.3 0 0 1-.051.012q-.047.01-.064 0-.022-.01-.031-.071l-.021-.203q.15.014.238.025.126.007.23.018l.099-.726.202.028a.7.7 0 0 1 .169.033m4.691-.644a1 1 0 0 1 .07.005c.012.003.018.013.018.02 0 .009 0 .02-.01.038a.2.2 0 0 0-.013.044v.053l.043.453.314-.027.024.263-.316.028.028.278-.367.034-.106-1.161.17-.019q.096-.005.146-.01m-1.316.895q-.053.034-.05.09c0 .037.026.062.067.083q.07.03.187.02a.5.5 0 0 0 .197-.057q.06-.037.054-.093c0-.037-.026-.063-.07-.08a.5.5 0 0 0-.203-.014.4.4 0 0 0-.182.052m.496-.81.021.218-.743.068-.023-.213zm.988 1.2.06.637-.367.034-.037-.39-1.449.135-.022-.248zm-.842-.582q.166.07.178.197c.01.088-.039.166-.137.233q-.163.111-.46.14-.292.027-.468-.054-.159-.073-.172-.202-.013-.13.131-.227.163-.11.451-.136.296-.03.477.048m.25-.381.02.217-1.488.138-.019-.218zm3.259-.173q.025.003.02.054c0 .017 0 .031-.01.041 0 .017 0 .034.011.051l.146.431 1.108-.372.081.247-2.263.758-.084-.244.808-.272-.194-.586.193-.064a.6.6 0 0 1 .181-.044m.64-.967q.11.328.154.592.046.271.04.544l-.368.101a2 2 0 0 0-.01-.368 2.4 2.4 0 0 0-.1-.499l-1.46.488-.08-.245zm2.525.244q-.101.107-.06.169.036.06.178.023.169-.045.442-.21.282-.177.398-.305.098-.114.064-.176-.04-.063-.182-.017a2 2 0 0 0-.449.225 2 2 0 0 0-.39.29m1-.791q.255-.042.337.094c.054.089.034.2-.069.342q-.17.24-.607.506-.426.265-.713.309c-.166.026-.28-.008-.335-.094q-.08-.136.066-.343.173-.235.6-.497.431-.269.721-.317m.112-.603.126.203-2.032 1.254-.126-.207zm-.656-.572.117.195-1.263.776.096.16 1.304-.804.118.197-1.626 1-.335-.546zm2.498-2.278a.15.15 0 0 1 .056-.04q.017-.01.028.003c.01.003.01.017.017.033a.2.2 0 0 0 .019.043.1.1 0 0 0 .032.044l.318.32.224-.218.187.187-.224.222.196.2-.262.258-.819-.828.121-.124c.045-.044.083-.08.107-.1m.945.885.449.455-.26.257-.275-.274-1.035 1.022-.176-.178zm-1.394.637c-.013.044-.01.08.017.102q.039.042.104.023a.4.4 0 0 0 .158-.104.44.44 0 0 0 .114-.166q.025-.07-.015-.107-.04-.039-.107-.016a.5.5 0 0 0-.165.115.4.4 0 0 0-.106.153m.374-.555q.17-.05.262.042.092.097.041.265c-.035.13-.127.262-.267.4q-.208.208-.395.256-.17.046-.262-.047-.088-.09-.041-.261.055-.18.26-.39a1.1 1.1 0 0 1 .402-.265m-.503-.383.149.154-.529.527-.152-.153zm.451-.066.155.154-1.061 1.048-.154-.154zm2.521-1.244-.53-.334.1-.164a1 1 0 0 1 .099-.134q.018-.01.037.018c.01.011.01.022.017.025a.1.1 0 0 0 .026.023l.434.273.163-.257-.53-.333.109-.175a.8.8 0 0 1 .099-.132q.018-.013.032.024c.01.01.01.02.017.027.01.01.015.02.024.026l.433.27.47-.749.22.14-1.271 2.02-.22-.138zm-.232-2.099a3.2 3.2 0 0 1 .87.758l-.221.31a2.4 2.4 0 0 0-.241-.278 2.4 2.4 0 0 0-.395-.323l-.818 1.302-.221-.139zm-15.565 4.26v-.245l.49-.504.013-.011a1.4 1.4 0 0 0 .126-.145.28.28 0 0 0 .05-.152.23.23 0 0 0-.061-.165.2.2 0 0 0-.156-.062.2.2 0 0 0-.157.062q-.054.066-.054.195v.056h-.251v-.039q0-.24.135-.387a.45.45 0 0 1 .346-.147q.189-.001.322.145.134.142.134.338a.5.5 0 0 1-.052.223 1 1 0 0 1-.153.204l-.373.372h.577v.262zm1.516-.394a.18.18 0 0 0 .107.136q.053.03.123.03c.084 0 .146-.026.184-.069q.056-.064.056-.21v-.602a.2.2 0 0 0-.024-.073.2.2 0 0 0-.086-.076.31.31 0 0 0-.248-.002.17.17 0 0 0-.084.073.2.2 0 0 0-.026.07v.723m-.27-.577c0-.08 0-.144.014-.19a.5.5 0 0 1 .256-.331.5.5 0 0 1 .236-.052.49.49 0 0 1 .419.223q.044.062.064.151a.8.8 0 0 1 .018.188v.446a.8.8 0 0 1-.018.192.47.47 0 0 1-.245.316.505.505 0 0 1-.655-.154.4.4 0 0 1-.072-.157 1 1 0 0 1-.016-.205zm1.552.577a.2.2 0 0 0 .024.063.2.2 0 0 0 .085.073q.051.03.123.03c.084 0 .144-.026.182-.069q.058-.064.058-.21v-.5a1 1 0 0 0 0-.102.2.2 0 0 0-.025-.073.2.2 0 0 0-.086-.076.3.3 0 0 0-.123-.026.3.3 0 0 0-.124.024.2.2 0 0 0-.084.073.2.2 0 0 0-.024.07 1 1 0 0 0-.01.107v.616m-.268-.577c0-.08 0-.144.013-.19a.4.4 0 0 1 .075-.174.5.5 0 0 1 .18-.157.5.5 0 0 1 .236-.052.49.49 0 0 1 .485.374 1 1 0 0 1 .018.188v.446a1 1 0 0 1-.018.192.46.46 0 0 1-.246.316.5.5 0 0 1-.475.003.54.54 0 0 1-.182-.157.4.4 0 0 1-.07-.157 1 1 0 0 1-.016-.205zm1.855-.093-.326.557h.326zm0 1.065v-.256h-.608v-.228l.619-1.034h.243v1.01h.14v.252h-.14v.256z" style="stroke-width:.0263361" transform="matrix(6.16204 0 0 6.16204 -7681.953 -4379.674)"/></g></svg>